<svg xmlns="http://www.w3.org/2000/svg" width="58" height="80" fill="none"><path fill="#F2F2F2" d="M.336 65.157V56.47h3.531q.974 0 1.624.284.651.285.978.79.327.5.327 1.153 0 .508-.207.895a1.8 1.8 0 0 1-.568.627 2.4 2.4 0 0 1-.819.344v.085q.503.02.944.28.443.258.719.725.276.462.275 1.102 0 .692-.348 1.234-.345.54-1.021.853-.675.314-1.667.314zM2.2 63.655h1.52q.78 0 1.137-.292a.97.97 0 0 0 .357-.79q0-.36-.176-.635a1.2 1.2 0 0 0-.504-.433 1.75 1.75 0 0 0-.771-.157H2.201zm0-3.55h1.382q.384 0 .68-.13.303-.136.474-.382a1 1 0 0 0 .177-.59.95.95 0 0 0-.34-.759q-.336-.288-.956-.288H2.2zM8.32 65.157v-6.514h1.834v6.514zm.921-7.354q-.41 0-.702-.267a.86.86 0 0 1-.289-.65q0-.372.289-.64a1 1 0 0 1 .702-.27q.409 0 .698.27a.854.854 0 0 1 0 1.29 1 1 0 0 1-.698.267M11.658 65.157V56.47h1.835v3.266h.056q.12-.263.349-.535.233-.275.603-.458.375-.186.93-.186.723 0 1.335.373.611.37.977 1.115.367.743.367 1.862 0 1.09-.358 1.84-.353.747-.965 1.133a2.5 2.5 0 0 1-1.36.382q-.535 0-.91-.174a1.9 1.9 0 0 1-.606-.437 2.2 2.2 0 0 1-.362-.539h-.082v1.044zm1.796-3.257q0 .58.164 1.013t.473.675q.31.237.754.237.448 0 .758-.242.31-.246.47-.678.163-.436.163-1.005 0-.564-.16-.993a1.5 1.5 0 0 0-.469-.67 1.2 1.2 0 0 0-.762-.242q-.448 0-.758.234-.306.233-.47.661t-.163 1.01M21.168 56.471v8.686h-1.834V56.47zM22.638 65.157v-6.514h1.835v6.514zm.922-7.354q-.41 0-.702-.267a.86.86 0 0 1-.289-.65q0-.372.289-.64a1 1 0 0 1 .702-.27q.409 0 .697.27a.854.854 0 0 1 0 1.29 1 1 0 0 1-.697.267M28.931 65.284q-1.004 0-1.736-.42a2.9 2.9 0 0 1-1.124-1.179q-.396-.76-.396-1.76 0-1.009.396-1.764.398-.76 1.124-1.18.732-.423 1.736-.423t1.731.424q.732.42 1.129 1.179.396.754.396 1.764 0 1-.396 1.76-.396.755-1.129 1.179-.728.42-1.731.42m.009-1.4q.456 0 .762-.254.306-.259.46-.704.16-.445.16-1.014 0-.568-.16-1.013a1.6 1.6 0 0 0-.46-.704 1.14 1.14 0 0 0-.762-.259 1.18 1.18 0 0 0-.776.259 1.6 1.6 0 0 0-.469.704 3.1 3.1 0 0 0-.155 1.013q0 .57.155 1.014.16.445.47.704.313.255.775.254M36.898 58.643V60h-3.983v-1.357zm-3.079-1.561h1.835v6.073q0 .25.077.39.078.136.216.19a.9.9 0 0 0 .327.056q.129 0 .258-.021l.198-.038.289 1.344q-.138.041-.388.098-.25.06-.607.072-.663.025-1.163-.174a1.6 1.6 0 0 1-.77-.62q-.276-.42-.272-1.06zM41.037 65.284q-1.02 0-1.757-.407a2.8 2.8 0 0 1-1.128-1.162q-.397-.756-.397-1.786 0-1.005.397-1.764.396-.759 1.115-1.183.723-.424 1.697-.424a3.5 3.5 0 0 1 1.219.208q.568.203.99.614.426.413.663 1.035.237.62.237 1.45v.497h-5.586v-1.12h3.86q0-.39-.173-.691a1.23 1.23 0 0 0-.478-.47 1.4 1.4 0 0 0-.702-.175q-.419 0-.74.191a1.35 1.35 0 0 0-.5.505q-.181.314-.185.7v1.064q0 .483.18.836.185.351.521.542t.797.191q.306 0 .56-.085.254-.083.435-.254.18-.17.276-.416l1.697.11a2.27 2.27 0 0 1-.53 1.052 2.66 2.66 0 0 1-1.025.696q-.625.246-1.443.246M48.26 65.284q-1.017 0-1.75-.424a2.9 2.9 0 0 1-1.119-1.188q-.387-.759-.387-1.747 0-1 .391-1.756.397-.759 1.124-1.183.729-.428 1.732-.428.865 0 1.516.31.65.31 1.029.869.38.56.418 1.314h-1.732a1.3 1.3 0 0 0-.387-.784q-.31-.3-.814-.301-.426 0-.745.229-.315.225-.491.657-.177.433-.177 1.048 0 .623.172 1.06.177.436.496.666.318.228.745.229.315 0 .564-.127.255-.127.418-.37a1.4 1.4 0 0 0 .22-.589h1.73a2.64 2.64 0 0 1-.413 1.315q-.366.564-1.012.882-.645.318-1.529.318M54.275 65.28q-.633 0-1.129-.217a1.8 1.8 0 0 1-.784-.648q-.284-.433-.284-1.078 0-.543.203-.912.202-.368.55-.593.35-.225.793-.34a6 6 0 0 1 .94-.16q.576-.06.93-.11.353-.056.512-.162a.35.35 0 0 0 .16-.314v-.025q0-.403-.26-.624-.253-.22-.723-.22-.495 0-.788.216a1 1 0 0 0-.387.534l-1.697-.135q.129-.594.508-1.027.379-.436.978-.67.603-.237 1.395-.237.551 0 1.055.127.508.127.9.394.396.267.625.688.228.415.228.996v4.394h-1.74v-.904h-.052a1.8 1.8 0 0 1-.426.539 2 2 0 0 1-.642.36 2.7 2.7 0 0 1-.865.128m.525-1.247q.405 0 .715-.157a1.26 1.26 0 0 0 .487-.433q.176-.27.176-.615v-.69a1 1 0 0 1-.237.1 4 4 0 0 1-.331.081q-.186.034-.37.064l-.337.047q-.323.045-.564.148a.9.9 0 0 0-.374.276.67.67 0 0 0-.134.424q0 .369.271.564.276.19.698.19"/><path fill="#2F80ED" d="M0 70.386v-1.514h7.244v1.514h-2.7v7.172H2.7v-7.172zM7.715 77.558v-6.515h1.779v1.137h.069q.18-.606.607-.916.426-.314.982-.314a3 3 0 0 1 .577.064v1.603a2.4 2.4 0 0 0-.357-.068 3 3 0 0 0-.418-.03q-.405 0-.724.174-.314.17-.5.475-.18.306-.18.704v3.686zM12.678 77.558v-6.515h1.834v6.514zm.921-7.354q-.408 0-.702-.267a.86.86 0 0 1-.288-.65q0-.373.288-.64a1 1 0 0 1 .702-.271q.41 0 .698.271a.855.855 0 0 1 0 1.29 1 1 0 0 1-.698.267M15.982 80v-8.957h1.809v1.095h.082q.12-.264.348-.535.233-.275.603-.458.375-.186.93-.186.724 0 1.336.373.61.37.977 1.115.366.743.366 1.862 0 1.09-.357 1.84-.354.747-.965 1.133a2.5 2.5 0 0 1-1.36.382q-.535 0-.91-.174a1.9 1.9 0 0 1-.607-.437 2.2 2.2 0 0 1-.361-.539h-.056V80zm1.796-5.7q0 .582.164 1.014t.473.674q.31.238.754.238.448 0 .758-.242.31-.246.47-.678.163-.438.163-1.005a2.8 2.8 0 0 0-.16-.993 1.5 1.5 0 0 0-.469-.67 1.2 1.2 0 0 0-.762-.242q-.448 0-.758.234-.305.233-.47.661-.163.428-.163 1.01M25.491 68.872v8.686h-1.835v-8.686zM29.975 77.685q-1.02 0-1.757-.407a2.8 2.8 0 0 1-1.128-1.162q-.396-.756-.396-1.786 0-1.005.396-1.764t1.115-1.183q.724-.424 1.697-.424.655 0 1.219.207.57.204.99.615.427.413.664 1.035.237.62.237 1.45v.497h-5.586v-1.12h3.859q0-.39-.173-.691a1.23 1.23 0 0 0-.478-.47 1.4 1.4 0 0 0-.702-.175q-.417 0-.74.191a1.35 1.35 0 0 0-.5.505q-.18.313-.185.7v1.064q0 .483.18.836.186.351.522.542.336.19.797.191.305 0 .56-.085.254-.084.434-.254t.276-.416l1.697.11a2.27 2.27 0 0 1-.53 1.052 2.66 2.66 0 0 1-1.025.696q-.624.246-1.443.246"/><path fill="#F2F2F2" fill-rule="evenodd" d="m0 4.554 19.256 6.474v28.54L0 33.095zm2.047 2.819v24.28l15.161 5.097V12.47z" clip-rule="evenodd"/><path fill="#F2F2F2" fill-rule="evenodd" d="m9.25 0 19.256 6.474v28.54L9.25 28.54zm2.047 2.818v24.28l15.162 5.098V7.916z" clip-rule="evenodd"/></svg>